<svg xmlns="http://www.w3.org/2000/svg" viewBox="0 0 1280 800" role="img" aria-labelledby="title desc">
  <title id="title">Cinema stage dashboard illustration</title>
  <desc id="desc">Abstract neon cinema control room with posters, analytics, and booking panels.</desc>
  <defs>
    <linearGradient id="bg" x1="0%" x2="100%" y1="0%" y2="100%">
      <stop offset="0%" stop-color="#08111f"/>
      <stop offset="55%" stop-color="#101c31"/>
      <stop offset="100%" stop-color="#0a1324"/>
    </linearGradient>
    <linearGradient id="glow" x1="0%" x2="100%">
      <stop offset="0%" stop-color="#22d3ee"/>
      <stop offset="100%" stop-color="#f97316"/>
    </linearGradient>
    <linearGradient id="panel" x1="0%" x2="100%" y1="0%" y2="100%">
      <stop offset="0%" stop-color="#14233d"/>
      <stop offset="100%" stop-color="#0b1527"/>
    </linearGradient>
  </defs>

  <rect width="1280" height="800" fill="url(#bg)"/>
  <circle cx="170" cy="120" r="150" fill="#14b8a6" opacity="0.08"/>
  <circle cx="1070" cy="120" r="180" fill="#f97316" opacity="0.10"/>
  <circle cx="1140" cy="640" r="170" fill="#0ea5e9" opacity="0.08"/>

  <g transform="translate(88 82)">
    <rect width="1104" height="618" rx="30" fill="#09111e" stroke="#21314f" stroke-width="2"/>
    <rect x="42" y="34" width="1020" height="78" rx="20" fill="#0d1a30"/>
    <rect x="72" y="56" width="210" height="34" rx="17" fill="#152947"/>
    <rect x="320" y="56" width="120" height="34" rx="17" fill="#14263f"/>
    <rect x="456" y="56" width="120" height="34" rx="17" fill="#14263f"/>
    <rect x="592" y="56" width="120" height="34" rx="17" fill="#14263f"/>
    <rect x="860" y="54" width="160" height="38" rx="19" fill="url(#glow)"/>

    <g transform="translate(52 148)">
      <rect width="530" height="420" rx="28" fill="url(#panel)" stroke="#22314e"/>
      <rect x="28" y="28" width="280" height="182" rx="22" fill="#0e1a2f"/>
      <rect x="328" y="28" width="174" height="182" rx="22" fill="#0c182c"/>
      <rect x="28" y="238" width="474" height="26" rx="13" fill="#173250"/>
      <rect x="28" y="282" width="320" height="20" rx="10" fill="#162a45"/>
      <rect x="28" y="316" width="370" height="20" rx="10" fill="#162a45"/>
      <rect x="28" y="350" width="240" height="20" rx="10" fill="#162a45"/>
      <circle cx="446" cy="328" r="58" fill="#131f35" stroke="#1ecad4" stroke-width="3"/>
      <path d="M446 328 L446 278 A50 50 0 0 1 490 350 Z" fill="#f97316"/>
      <path d="M446 328 L490 350 A50 50 0 0 1 406 368 Z" fill="#14b8a6"/>
      <path d="M446 328 L406 368 A50 50 0 0 1 430 282 Z" fill="#0ea5e9"/>
    </g>

    <g transform="translate(614 148)">
      <rect width="438" height="420" rx="28" fill="url(#panel)" stroke="#22314e"/>
      <rect x="30" y="28" width="378" height="240" rx="22" fill="#0d192d"/>
      <rect x="58" y="58" width="150" height="180" rx="18" fill="#12243d"/>
      <rect x="228" y="58" width="150" height="180" rx="18" fill="#12243d"/>
      <rect x="58" y="290" width="320" height="22" rx="11" fill="#183151"/>
      <rect x="58" y="328" width="266" height="18" rx="9" fill="#162947"/>
      <rect x="58" y="358" width="218" height="18" rx="9" fill="#162947"/>
      <circle cx="338" cy="336" r="16" fill="#14b8a6"/>
      <circle cx="372" cy="336" r="16" fill="#f97316"/>
    </g>
  </g>

  <g transform="translate(160 180)">
    <rect width="220" height="300" rx="24" fill="#0f2139" opacity="0.9" stroke="#1e3558"/>
    <rect x="18" y="18" width="184" height="264" rx="18" fill="#0c182c"/>
    <circle cx="110" cy="136" r="68" fill="#f97316" opacity="0.85"/>
    <circle cx="144" cy="126" r="84" fill="none" stroke="#ffe7cc" stroke-width="6" opacity="0.9"/>
    <text x="110" y="234" text-anchor="middle" fill="#fff7ed" font-family="Segoe UI, Arial, sans-serif" font-size="34" font-weight="700">MATINEE</text>
  </g>

  <g transform="translate(930 164)">
    <rect width="190" height="274" rx="24" fill="#102039" opacity="0.86" stroke="#1e3558"/>
    <rect x="18" y="18" width="154" height="238" rx="18" fill="#0b182d"/>
    <path d="M44 192 C76 150 110 172 146 116" fill="none" stroke="#60a5fa" stroke-width="10" stroke-linecap="round"/>
    <path d="M44 126 C84 82 118 102 146 52" fill="none" stroke="#f97316" stroke-width="10" stroke-linecap="round"/>
    <text x="95" y="228" text-anchor="middle" fill="#e0f2fe" font-family="Segoe UI, Arial, sans-serif" font-size="28" font-weight="700">BOOK</text>
  </g>
</svg>
